# This file uses centimeters as units for non-parametric coordinates.

mtllib activator.mtl
g default
v -1.783507 -0.000000 2.532450
v -1.692000 -0.000000 2.650168
v -1.737754 -0.000000 2.634396
v -1.771247 -0.000000 2.591309
v -0.591071 4.436456 1.292930
v -0.578949 4.436456 1.352378
v -0.545833 4.436456 1.395897
v -0.500594 4.436456 1.411826
v 2.891363 -0.000000 2.532450
v 2.879104 -0.000000 2.591309
v 2.845610 -0.000000 2.634396
v 2.799857 -0.000000 2.650168
v 1.608451 4.436456 1.411826
v 1.653689 4.436456 1.395897
v 1.686806 4.436456 1.352378
v 1.698928 4.436456 1.292930
v -0.500594 4.436456 -0.966333
v -0.545833 4.436456 -0.950403
v -0.578949 4.436456 -0.906884
v -0.591071 4.436456 -0.847436
v -1.783507 -0.000000 -2.086956
v -1.771247 -0.000000 -2.145815
v -1.737754 -0.000000 -2.188903
v -1.692000 -0.000000 -2.204674
v 1.698928 4.436456 -0.847436
v 1.686806 4.436456 -0.906884
v 1.653689 4.436456 -0.950403
v 1.608451 4.436456 -0.966333
v 2.891363 -0.000000 -2.086956
v 2.799857 -0.000000 -2.204674
v 2.845610 -0.000000 -2.188903
v 2.879104 -0.000000 -2.145815
v -0.545858 6.822659 1.292998
v -0.578956 6.779165 1.292998
v -0.591071 6.719751 1.292998
v -0.578956 6.719751 1.352412
v -0.545858 6.719751 1.395906
v -0.500646 6.719751 1.411826
v -0.500646 6.779165 1.395906
v -0.500646 6.822659 1.352412
v -0.500646 6.838580 1.292998
v 1.686813 6.779165 1.292998
v 1.653715 6.822659 1.292998
v 1.608502 6.838580 1.292998
v 1.608503 6.822659 1.352412
v 1.608503 6.779165 1.395906
v 1.608502 6.719751 1.411826
v 1.653715 6.719751 1.395906
v 1.686813 6.719751 1.352412
v 1.698928 6.719751 1.292998
v 1.608503 6.779165 -0.950413
v 1.608503 6.822659 -0.906918
v 1.608502 6.838580 -0.847504
v 1.653715 6.822659 -0.847505
v 1.686813 6.779165 -0.847505
v 1.698928 6.719751 -0.847504
v 1.686813 6.719751 -0.906918
v 1.653715 6.719751 -0.950413
v 1.608502 6.719751 -0.966333
v -0.578956 6.779165 -0.847505
v -0.545858 6.822659 -0.847505
v -0.500646 6.838580 -0.847504
v -0.500646 6.822659 -0.906918
v -0.500646 6.779165 -0.950413
v -0.500646 6.719751 -0.966333
v -0.545858 6.719751 -0.950413
v -0.578956 6.719751 -0.906918
v -0.591071 6.719751 -0.847504
v -0.539717 6.813723 1.344342
v -0.572156 6.771095 1.344342
v -0.539717 6.771095 1.386970
v 1.680013 6.771095 1.344342
v 1.647574 6.813724 1.344342
v 1.647574 6.771095 1.386970
v 1.647574 6.771095 -0.941477
v 1.647574 6.813724 -0.898848
v 1.680013 6.771095 -0.898848
v -0.572156 6.771095 -0.898848
v -0.539717 6.813724 -0.898848
v -0.539717 6.771095 -0.941477
v 0.553928 6.984852 0.222747
v 0.553928 6.838580 1.292998
v 1.608502 6.838580 0.222747
v 0.553928 6.838580 -0.847504
v -0.500646 6.838580 0.222747
vt 0.288655 0.001654
vt 0.292228 0.001654
vt 0.217005 0.271019
vt 0.213396 0.271019
vt 0.294845 0.001654
vt 0.219648 0.271019
vt 0.217007 0.409652
vt 0.213400 0.409652
vt 0.083441 0.271019
vt 0.008182 0.001654
vt 0.219648 0.409652
vt 0.213400 0.413260
vt 0.216517 0.412770
vt 0.083437 0.409652
vt 0.079831 0.271019
vt 0.004608 0.001654
vt 0.219106 0.412770
vt 0.083437 0.413260
vt 0.216517 0.415358
vt 0.213400 0.415901
vt 0.079829 0.409652
vt 0.077189 0.271019
vt 0.001992 0.001654
vt 0.083437 0.415901
vt 0.080319 0.412770
vt 0.077188 0.409652
vt 0.080319 0.415358
vt 0.077731 0.412770
vt 0.304942 0.001654
vt 0.308515 0.001654
vt 0.383774 0.271019
vt 0.380165 0.271019
vt 0.588988 0.001654
vt 0.513729 0.271019
vt 0.383770 0.409652
vt 0.380163 0.409652
vt 0.302326 0.001654
vt 0.377523 0.271019
vt 0.517339 0.271019
vt 0.592562 0.001654
vt 0.513733 0.409652
vt 0.383770 0.413260
vt 0.380653 0.412770
vt 0.377522 0.409652
vt 0.517341 0.409652
vt 0.519981 0.271019
vt 0.595178 0.001654
vt 0.513734 0.413260
vt 0.383770 0.415901
vt 0.380653 0.415358
vt 0.378065 0.412770
vt 0.519982 0.409652
vt 0.516851 0.412770
vt 0.513734 0.415901
vt 0.519439 0.412770
vt 0.516851 0.415358
vt 0.189064 0.595390
vt 0.189064 0.591783
vt 0.254046 0.591783
vt 0.319028 0.591783
vt 0.319028 0.595390
vt 0.185457 0.591783
vt 0.185947 0.594900
vt 0.189064 0.507641
vt 0.254046 0.507641
vt 0.319028 0.507641
vt 0.322635 0.591783
vt 0.322145 0.594900
vt 0.185457 0.423499
vt 0.189064 0.423499
vt 0.183359 0.594900
vt 0.182816 0.591783
vt 0.254046 0.423499
vt 0.319028 0.423499
vt 0.322635 0.423499
vt 0.325276 0.591783
vt 0.324733 0.594900
vt 0.182816 0.423499
vt 0.189064 0.419892
vt 0.185947 0.420382
vt 0.319028 0.419892
vt 0.322145 0.420382
vt 0.325276 0.423499
vt 0.183359 0.420382
vt 0.324733 0.420382
vt 0.338559 0.419892
vt 0.619031 0.419892
vt 0.622605 0.420870
vt 0.625221 0.423543
vt 0.626179 0.427193
vt 0.626179 0.785586
vt 0.625221 0.789236
vt 0.622605 0.791909
vt 0.619031 0.792887
vt 0.338559 0.792887
vt 0.334985 0.791909
vt 0.332369 0.789236
vt 0.331411 0.785586
vt 0.331411 0.427193
vt 0.332369 0.423543
vt 0.334985 0.420870
vt 0.602464 0.001654
vt 0.606115 0.001654
vt 0.701174 0.271019
vt 0.697564 0.271019
vt 0.964508 0.001654
vt 0.869449 0.271019
vt 0.701170 0.409652
vt 0.697562 0.409652
vt 0.968158 0.001654
vt 0.873058 0.271019
vt 0.869453 0.409652
vt 0.701170 0.413260
vt 0.698052 0.412770
vt 0.873060 0.409652
vt 0.869453 0.413260
vt 0.872570 0.412770
vt 0.727414 0.559492
vt 0.731024 0.559492
vt 0.635965 0.828857
vt 0.632314 0.828857
vt 0.727412 0.420859
vt 0.731020 0.420859
vt 0.899299 0.559492
vt 0.994358 0.828857
vt 0.731019 0.417251
vt 0.727902 0.417741
vt 0.899303 0.420859
vt 0.902908 0.559492
vt 0.998008 0.828857
vt 0.899303 0.417251
vt 0.902910 0.420859
vt 0.902420 0.417741
vn -0.965400 0.260735 0.004489
vn -0.856562 0.338870 0.389191
vn -0.891039 0.234551 0.388633
vn -0.978662 0.205453 0.003280
vn -0.582369 0.359961 0.728885
vn -0.568769 0.249775 0.783655
vn -0.006635 0.270499 0.962697
vn -0.004098 0.214457 0.976725
vn 0.006635 0.270499 0.962697
vn 0.582369 0.359961 0.728885
vn 0.568769 0.249775 0.783655
vn 0.004098 0.214457 0.976725
vn 0.856562 0.338870 0.389191
vn 0.891039 0.234551 0.388633
vn 0.965400 0.260735 0.004489
vn 0.978662 0.205453 0.003280
vn -0.978662 0.205453 -0.003280
vn -0.891039 0.234551 -0.388633
vn -0.856562 0.338870 -0.389191
vn -0.965400 0.260735 -0.004489
vn -0.568769 0.249775 -0.783655
vn -0.582370 0.359961 -0.728885
vn -0.004098 0.214457 -0.976725
vn -0.006635 0.270499 -0.962697
vn 0.004098 0.214457 -0.976725
vn 0.568769 0.249775 -0.783655
vn 0.582369 0.359961 -0.728885
vn 0.006635 0.270499 -0.962697
vn 0.891039 0.234551 -0.388633
vn 0.856562 0.338870 -0.389191
vn 0.978662 0.205453 -0.003280
vn 0.965400 0.260735 -0.004489
vn -0.999972 0.005136 0.005474
vn -0.915556 0.402166 0.004379
vn -0.915556 0.402166 -0.004379
vn -0.999972 0.005136 -0.005474
vn -0.604339 0.796712 0.005008
vn -0.604339 0.796711 -0.005008
vn -0.082995 0.993198 0.081662
vn -0.091300 0.995823 0.000000
vn -0.082995 0.993198 -0.081662
vn -0.005553 0.866046 0.499933
vn 0.005553 0.866046 0.499933
vn 0.082995 0.993198 0.081662
vn 0.000000 0.996126 0.087942
vn -0.005553 0.499931 0.866047
vn 0.005553 0.499931 0.866047
vn -0.007345 0.006760 0.999950
vn 0.007345 0.006760 0.999950
vn 0.604339 0.796712 0.005008
vn 0.604339 0.796712 -0.005008
vn 0.082995 0.993198 -0.081662
vn 0.091300 0.995823 0.000000
vn 0.915556 0.402166 0.004379
vn 0.915556 0.402166 -0.004379
vn 0.999972 0.005136 0.005474
vn 0.999972 0.005137 -0.005474
vn 0.005553 0.866046 -0.499933
vn -0.005553 0.866046 -0.499933
vn 0.000000 0.996126 -0.087942
vn 0.005553 0.499931 -0.866047
vn -0.005553 0.499931 -0.866047
vn 0.007345 0.006760 -0.999950
vn -0.007345 0.006760 -0.999950
vn -0.069025 0.995294 0.068014
vn 0.000000 -1.000000 -0.000000
vn 0.000000 -1.000000 -0.000000
vn 0.000000 -1.000000 -0.000000
vn 0.000000 -1.000000 -0.000000
vn 0.000000 -1.000000 -0.000000
vn 0.000000 -1.000000 -0.000000
vn 0.000000 -1.000000 -0.000000
vn 0.000000 -1.000000 -0.000000
vn 0.000000 -1.000000 -0.000000
vn 0.000000 -1.000000 -0.000000
vn 0.000000 -1.000000 -0.000000
vn 0.000000 -1.000000 -0.000000
vn 0.000000 -1.000000 -0.000000
vn 0.000000 -1.000000 -0.000000
vn 0.000000 -1.000000 -0.000000
vn 0.000000 -1.000000 -0.000000
vn -0.604344 0.004690 0.796710
vn -0.915555 0.004102 0.402171
vn 0.915555 0.004102 0.402171
vn 0.604344 0.004690 0.796710
vn -0.915555 0.004102 -0.402171
vn -0.331533 0.004687 -0.943432
vn -0.795781 0.004324 -0.605569
vn 0.331533 0.004687 -0.943432
vn 0.915555 0.004102 -0.402171
vn 0.795781 0.004324 -0.605569
vn -0.295362 0.928569 0.224769
vn -0.603892 0.651254 0.459545
vn -0.796395 0.427641 0.427642
vn -0.967707 0.178244 0.178248
vn -0.603891 0.459546 0.651255
vn -0.295360 0.224760 0.928571
vn 0.967707 0.178244 0.178248
vn 0.796395 0.427640 0.427644
vn 0.603891 0.651252 0.459549
vn 0.295357 0.928572 0.224763
vn 0.603890 0.459546 0.651257
vn 0.295362 0.224761 0.928571
vn 0.295360 0.224760 -0.928571
vn 0.603890 0.459545 -0.651257
vn 0.603891 0.651252 -0.459550
vn 0.295357 0.928572 -0.224765
vn 0.796395 0.427639 -0.427644
vn 0.967707 0.178244 -0.178248
vn -0.967707 0.178244 -0.178248
vn -0.796396 0.427638 -0.427644
vn -0.603891 0.651252 -0.459550
vn -0.295357 0.928572 -0.224763
vn -0.603891 0.459544 -0.651257
vn -0.295362 0.224761 -0.928571
vn 0.069025 0.995294 0.068014
vn 0.069025 0.995294 -0.068014
vn -0.069025 0.995294 -0.068014
s 1
g pCube1
usemtl phong2SG
f 1/1/1 4/2/2 6/3/3 5/4/4
f 4/2/2 3/5/5 7/6/6 6/3/3
f 3/102/5 2/103/7 8/104/8 7/105/6
f 12/106/9 11/110/10 14/111/11 13/107/12
f 11/37/10 10/29/13 15/32/14 14/38/11
f 10/29/13 9/30/15 16/31/16 15/32/14
f 20/9/17 19/15/18 22/16/19 21/10/20
f 19/15/18 18/22/21 23/23/22 22/16/19
f 18/118/21 17/119/23 24/120/24 23/121/22
f 28/124/25 27/129/26 31/130/27 30/125/28
f 27/46/26 26/39/29 32/40/30 31/47/27
f 26/39/29 25/34/31 29/33/32 32/40/30
f 35/8/33 34/12/34 60/18/35 68/14/36
f 34/12/34 33/20/37 61/24/38 60/18/35
f 33/57/37 41/58/39 85/59/40 62/60/41 61/61/38
f 41/58/39 40/62/42 45/69/43 44/70/44 82/64/45
f 40/62/42 39/72/46 46/78/47 45/69/43
f 39/113/46 38/108/48 47/112/49 46/116/47
f 44/70/44 43/79/50 54/81/51 53/74/52 83/73/53
f 43/49/50 42/42/54 55/48/55 54/54/51
f 42/42/54 50/35/56 56/41/57 55/48/55
f 53/74/52 52/75/58 63/67/59 62/60/41 84/66/60
f 52/75/58 51/83/61 64/76/62 63/67/59
f 51/131/61 59/128/63 65/123/64 64/126/62
f 8/104/8 2/103/7 12/106/9 13/107/12
f 85/59/40 41/58/39 82/64/45 81/65/65
f 17/119/23 28/124/25 30/125/28 24/120/24
f 16/31/16 9/30/15 29/33/32 25/34/31
f 20/9/17 21/10/20 1/1/1 5/4/4
f 8/104/8 13/107/12 47/112/49 38/108/48
f 16/31/16 25/34/31 56/41/57 50/35/56
f 28/124/25 17/119/23 65/123/64 59/128/63
f 20/9/17 5/4/4 35/8/33 68/14/36
s off
f 29/86/66 9/87/67 10/88/68 11/89/69 12/90/70 2/91/71 3/92/72 4/93/73 1/94/74 21/95/75 22/96/76 23/97/77 24/98/78 30/99/79 31/100/80 32/101/81
s 1
f 7/105/6 8/104/8 38/108/48 37/109/82
f 5/4/4 6/3/3 36/7/83 35/8/33
f 6/3/3 7/6/6 37/11/82 36/7/83
f 15/32/14 16/31/16 50/35/56 49/36/84
f 13/107/12 14/111/11 48/115/85 47/112/49
f 14/38/11 15/32/14 49/36/84 48/44/85
f 19/15/18 20/9/17 68/14/36 67/21/86
f 17/119/23 18/118/21 66/122/87 65/123/64
f 18/22/21 19/15/18 67/21/86 66/26/88
f 27/129/26 28/124/25 59/128/63 58/132/89
f 25/34/31 26/39/29 57/45/90 56/41/57
f 26/39/29 27/46/26 58/52/91 57/45/90
f 40/62/42 41/58/39 33/57/37 69/63/92
f 69/19/93 33/20/37 34/12/34 70/13/94
f 34/12/34 35/8/33 36/7/83 70/13/95
f 70/13/94 36/7/83 37/11/82 71/17/96
f 37/109/82 38/108/48 39/113/46 71/114/97
f 71/71/96 39/72/46 40/62/42 69/63/93
f 69/19/93 70/13/94 71/17/96
f 49/36/84 50/35/56 42/42/54 72/43/98
f 72/43/99 42/42/54 43/49/50 73/50/100
f 43/79/50 44/70/44 45/69/43 73/80/101
f 73/80/100 45/69/43 46/78/47 74/84/102
f 46/116/47 47/112/49 48/115/85 74/117/103
f 74/51/102 48/44/85 49/36/84 72/43/99
f 72/43/99 73/50/100 74/51/102
f 58/132/89 59/128/63 51/131/61 75/133/104
f 75/85/105 51/83/61 52/75/58 76/82/106
f 52/75/58 53/74/52 54/81/51 76/82/107
f 76/56/106 54/54/51 55/48/55 77/53/108
f 55/48/55 56/41/57 57/45/90 77/53/109
f 77/53/108 57/45/90 58/52/91 75/55/105
f 75/55/105 76/56/106 77/53/108
f 67/21/86 68/14/36 60/18/35 78/25/110
f 78/25/111 60/18/35 61/24/38 79/27/112
f 61/61/38 62/60/41 63/67/59 79/68/113
f 79/68/112 63/67/59 64/76/62 80/77/114
f 64/126/62 65/123/64 66/122/87 80/127/115
f 80/28/114 66/26/88 67/21/86 78/25/111
f 78/25/111 79/27/112 80/28/114
f 82/64/45 44/70/44 83/73/53 81/65/116
f 83/73/53 53/74/52 84/66/60 81/65/117
f 84/66/60 62/60/41 85/59/40 81/65/118
g default
v 1.699706 4.984861 -0.152941
v 1.699104 5.358382 -0.368594
v 1.698420 5.783134 -0.293699
v 1.697973 6.060371 0.036700
v 1.697973 6.060371 0.468005
v 1.698420 5.783134 0.798404
v 1.699104 5.358382 0.873299
v 1.699706 4.984862 0.657646
v 1.699944 4.837347 0.252353
v 2.014864 5.050080 -0.098642
v 2.014343 5.373559 -0.285403
v 2.013750 5.741405 -0.220542
v 2.013363 5.981499 0.065592
v 2.013363 5.981499 0.439113
v 2.013750 5.741405 0.725247
v 2.014343 5.373559 0.790108
v 2.014864 5.050081 0.603347
v 2.015070 4.922329 0.252353
v 2.211936 5.260269 0.076912
v 2.211676 5.421956 -0.016438
v 2.211380 5.605820 0.015982
v 2.211186 5.725828 0.159002
v 2.211186 5.725828 0.345703
v 2.211380 5.605820 0.488723
v 2.211676 5.421956 0.521143
v 2.211936 5.260269 0.427793
v 2.212039 5.196414 0.252353
vt 0.036406 0.423630
vt 0.036406 0.206470
vt 0.224911 0.221731
vt 0.225403 0.409788
vt 0.036406 0.040116
vt 0.195139 0.076950
vt 0.358942 0.266233
vt 0.359453 0.358601
vt 0.036406 0.589985
vt 0.195139 0.553150
vt 0.202819 0.959884
vt 0.202819 0.741358
vt 0.372802 0.741358
vt 0.372802 0.930607
vt 0.202819 0.522833
vt 0.372802 0.552109
vt 0.479242 0.741358
vt 0.479242 0.835952
vt 0.479242 0.646764
vt 0.362442 0.548973
vt 0.430868 0.429885
vt 0.637003 0.310873
vt 0.604852 0.399207
vt 0.523443 0.446208
vt 0.430868 0.191862
vt 0.523443 0.175538
vt 0.604852 0.222539
vt 0.547651 0.581631
vt 0.710521 0.487598
vt 0.362442 0.072773
vt 0.547651 0.040116
vt 0.710521 0.134149
vt 0.868989 0.040116
vt 0.868989 0.226941
vt 0.711303 0.234277
vt 0.711303 0.072482
vt 0.868989 0.439390
vt 0.711303 0.418264
vt 0.711303 0.818719
vt 0.711303 0.606269
vt 0.868989 0.613606
vt 0.868989 0.797593
vt 0.711303 0.419445
vt 0.868989 0.451811
vn 0.244950 -0.484473 -0.839813
vn 0.244950 -0.484473 -0.839813
vn 0.244950 -0.484473 -0.839813
vn 0.244950 -0.484473 -0.839813
vn 0.243897 0.168785 -0.955000
vn 0.243897 0.168785 -0.955000
vn 0.243897 0.168785 -0.955000
vn 0.243897 0.168785 -0.955000
vn 0.242971 0.743251 -0.623332
vn 0.242971 0.743251 -0.623332
vn 0.242971 0.743251 -0.623332
vn 0.242971 0.743251 -0.623332
vn 0.242606 0.970125 -0.000000
vn 0.242606 0.970125 -0.000000
vn 0.242606 0.970125 -0.000000
vn 0.242606 0.970125 -0.000000
vn 0.242972 0.743251 0.623332
vn 0.242972 0.743251 0.623332
vn 0.242972 0.743251 0.623332
vn 0.242972 0.743251 0.623332
vn 0.243897 0.168785 0.955000
vn 0.243897 0.168785 0.955000
vn 0.243897 0.168785 0.955000
vn 0.243897 0.168785 0.955000
vn 0.244950 -0.484472 0.839813
vn 0.244950 -0.484472 0.839813
vn 0.244950 -0.484472 0.839813
vn 0.244950 -0.484472 0.839813
vn 0.245637 -0.910856 0.331668
vn 0.245637 -0.910856 0.331668
vn 0.245637 -0.910856 0.331668
vn 0.245637 -0.910856 0.331668
vn 0.245636 -0.910856 -0.331668
vn 0.245637 -0.910856 -0.331668
vn 0.245636 -0.910856 -0.331668
vn 0.245636 -0.910856 -0.331668
vn 0.793498 -0.303327 -0.527592
vn 0.793498 -0.303327 -0.527592
vn 0.793498 -0.303327 -0.527592
vn 0.793498 -0.303327 -0.527592
vn 0.792332 0.107179 -0.600602
vn 0.792332 0.107179 -0.600602
vn 0.792332 0.107179 -0.600602
vn 0.792332 0.107179 -0.600602
vn 0.791303 0.468904 -0.392387
vn 0.791303 0.468904 -0.392387
vn 0.791303 0.468904 -0.392387
vn 0.791303 0.468904 -0.392387
vn 0.790897 0.611950 -0.000000
vn 0.790897 0.611950 -0.000000
vn 0.790897 0.611950 -0.000000
vn 0.790897 0.611950 -0.000000
vn 0.791303 0.468904 0.392387
vn 0.791303 0.468904 0.392387
vn 0.791303 0.468904 0.392387
vn 0.791303 0.468904 0.392387
vn 0.792332 0.107179 0.600602
vn 0.792332 0.107179 0.600602
vn 0.792332 0.107179 0.600602
vn 0.792332 0.107179 0.600602
vn 0.793498 -0.303327 0.527592
vn 0.793498 -0.303327 0.527592
vn 0.793498 -0.303327 0.527592
vn 0.793498 -0.303327 0.527592
vn 0.794258 -0.570789 0.208216
vn 0.794258 -0.570789 0.208216
vn 0.794258 -0.570789 0.208216
vn 0.794258 -0.570789 0.208216
vn 0.794258 -0.570789 -0.208216
vn 0.794258 -0.570789 -0.208216
vn 0.794258 -0.570789 -0.208216
vn 0.794258 -0.570789 -0.208216
vn 0.999999 0.001611 0.000000
vn 0.999999 0.001611 0.000000
vn 0.999999 0.001611 0.000000
vn 0.999999 0.001611 0.000000
vn 0.999999 0.001611 0.000000
vn 0.999999 0.001611 0.000000
vn 0.999999 0.001611 0.000000
vn 0.999999 0.001611 0.000000
vn 0.999999 0.001611 0.000000
s off
g pSphere1
usemtl phong1SG
f 86/166/119 87/167/120 96/168/121 95/169/122
f 87/167/123 88/170/124 97/171/125 96/168/126
f 88/142/127 89/134/128 98/137/129 97/143/130
f 89/134/131 90/135/132 99/136/133 98/137/134
f 90/135/135 91/138/136 100/139/137 99/136/138
f 91/172/139 92/173/140 101/174/141 100/175/142
f 92/173/143 93/176/144 102/177/145 101/174/146
f 93/144/147 94/145/148 103/146/149 102/147/150
f 94/145/151 86/148/152 95/149/153 103/146/154
f 95/162/155 96/161/156 105/157/157 104/156/158
f 96/161/159 97/153/160 106/154/161 105/157/162
f 97/153/163 98/137/164 107/141/165 106/154/166
f 98/137/167 99/136/168 108/140/169 107/141/170
f 99/136/171 100/163/172 109/158/173 108/140/174
f 100/163/175 101/164/176 110/159/177 109/158/178
f 101/164/179 102/165/180 111/160/181 110/159/182
f 102/147/183 103/146/184 112/150/185 111/151/186
f 103/146/187 95/149/188 104/152/189 112/150/190
f 112/155/191 104/156/192 105/157/193 106/154/194 107/141/195 108/140/196 109/158/197 110/159/198 111/160/199
